<?xml version="1.0" encoding="UTF-8" standalone="no"?>
<svg width="70px" height="70px" viewBox="0 0 70 70" version="1.1" xmlns="http://www.w3.org/2000/svg" xmlns:xlink="http://www.w3.org/1999/xlink">
    <!-- Generator: Sketch 50.2 (55047) - http://www.bohemiancoding.com/sketch -->
    <title>Group 21</title>
    <desc>Created with Sketch.</desc>
    <defs>
        <polygon id="path-1" points="0 0.15625 32.6666667 0.15625 32.6666667 5.572875 0 5.572875"></polygon>
        <polygon id="path-3" points="0 0.1878 32.6666667 0.1878 32.6666667 10.4998 0 10.4998"></polygon>
    </defs>
    <g id="Symbols" stroke="none" stroke-width="1" fill="none" fill-rule="evenodd">
        <g id="vl_gdpr_icon01">
            <g id="Group-21">
                <g id="Group" fill="#AFB0B1">
                    <polygon id="Fill-1" points="35.0052398 0 33.9192982 3.49319728 30.3333333 3.49319728 33.2571228 5.75102041 32.1194386 9.33333333 35.0052398 7.12721088 37.8936608 9.33333333 36.7664561 5.75102041 39.6666667 3.49319728 36.0669474 3.49319728"></polygon>
                    <polygon id="Fill-2" points="33.9194499 64.1587579 30.3333333 64.1587579 33.2567125 66.4208276 32.1198428 70 35.0058939 67.7937167 37.8906352 70 36.7668631 66.4208276 39.6666667 64.1587579 36.0674525 64.1587579 35.0058939 60.6666667"></polygon>
                    <polygon id="Fill-3" points="51.2362339 59.4903877 54.8333333 59.4903877 51.9363977 61.7524365 53.0603275 65.3333333 50.1751813 63.1291287 47.2854503 65.3333333 48.4244444 61.7524365 45.5 59.4903877 49.0853099 59.4903877 50.1751813 56"></polygon>
                    <polygon id="Fill-4" points="51.2362339 8.1585034 54.8333333 8.1585034 51.9363977 10.4170068 53.0603275 14 50.1751813 11.7931973 47.2854503 14 48.4244444 10.4170068 45.5 8.1585034 49.0853099 8.1585034 50.1751813 4.66666667"></polygon>
                    <polygon id="Fill-5" points="61.7338666 18.6567998 65.3333333 18.6567998 62.4333263 20.9159619 63.5578322 24.5 60.6722335 22.2959561 57.7866349 24.5 58.9235843 20.9159619 56 18.6567998 59.5863682 18.6567998 60.6722335 15.1666667"></polygon>
                    <polygon id="Fill-6" points="61.7338666 48.992517 65.3333333 48.992517 62.4333263 51.2510204 63.5578322 54.8333333 60.6722335 52.6272109 57.7866349 54.8333333 58.9235843 51.2510204 56 48.992517 59.5863682 48.992517 60.6722335 45.5"></polygon>
                    <polygon id="Fill-7" points="64.2530864 32.6596094 60.6666667 32.6596094 63.5918444 34.9179482 62.4539843 38.5 65.3392256 36.2933581 68.2251216 38.5 67.1010101 34.9179482 70 32.6596094 66.401141 32.6596094 65.3392256 29.1666667"></polygon>
                    <polygon id="Fill-8" points="20.9000281 8.15875793 24.5 8.15875793 21.600896 10.417426 22.7249047 14 19.838901 11.7937167 16.9515872 14 18.0906613 10.417426 15.1666667 8.15875793 18.7515732 8.15875793 19.838901 4.66666667"></polygon>
                    <polygon id="Fill-9" points="10.4015433 18.6585034 14 18.6585034 11.1008067 20.9142857 12.2249971 24.5 9.33955337 22.2931973 6.45214545 24.5 7.58943061 20.9142857 4.66666667 18.6585034 8.25137379 18.6585034 9.33955337 15.1666667"></polygon>
                    <polygon id="Fill-10" points="3.58611657 32.6591837 0 32.6591837 2.92337917 34.9170068 1.7865095 38.5 4.67321546 36.2938776 7.56123117 38.5 6.43483955 34.9170068 9.33333333 32.6591837 5.73477407 32.6591837 4.67321546 29.1666667"></polygon>
                    <polygon id="Fill-11" points="10.4015433 48.9918367 14 48.9918367 11.1008067 51.2530612 12.2249971 54.8333333 9.33955337 52.6265306 6.45214545 54.8333333 7.58943061 51.2530612 4.66666667 48.9918367 8.25137379 48.9918367 9.33955337 45.5"></polygon>
                    <polygon id="Fill-12" points="22.0684624 59.492517 25.6666667 59.492517 22.7689862 61.7510204 23.8911336 65.3333333 21.006547 63.1272109 18.1219603 65.3333333 19.256547 61.7510204 16.3333333 59.492517 19.9184437 59.492517 21.006547 56"></polygon>
                </g>
                <g id="Group-20" transform="translate(18.666667, 19.833333)">
                    <g id="Group-3">
                        <mask id="mask-2" fill="white">
                            <use xlink:href="#path-1"></use>
                        </mask>
                        <g id="Clip-2"></g>
                        <path d="M32.6666667,5.572875 L32.6666667,1.15620833 C32.6666667,0.614541667 32.2674074,0.156208333 31.7955556,0.156208333 L17.2044444,0.156208333 L15.4259259,0.156208333 L0.871111111,0.156208333 C0.399259259,0.156208333 0,0.614541667 0,1.15620833 L0,5.572875 L32.6666667,5.572875 Z" id="Fill-1" fill="#AFB0B1" mask="url(#mask-2)"></path>
                    </g>
                    <path d="M17.0592593,31.4002478 L32.6666667,25.8584607 L32.6666667,4.66666667 L0,4.66666667 L0,25.8584607 L15.6074074,31.4002478 C15.9703704,31.5332507 16.6962963,31.5332507 17.0592593,31.4002478" id="Fill-4" fill="#AFB0B1"></path>
                    <g id="Group-8" transform="translate(0.000000, 24.500000)">
                        <mask id="mask-4" fill="white">
                            <use xlink:href="#path-3"></use>
                        </mask>
                        <g id="Clip-7"></g>
                        <path d="M17.4391417,6.0995 C17.1132001,6.25 16.7140215,6.2995 16.3152053,6.2995 C15.9163892,6.2995 15.5175731,6.25 15.191269,6.0995 L0,0 L0,3.2995 C0,3.9495 0.39881613,4.65 0.870144284,4.8495 L15.4816796,10.1995 C15.9526452,10.3495 16.7140215,10.3495 17.1857122,10.1995 L31.7968849,4.8495 C32.2678505,4.6995 32.6666667,4 32.6666667,3.2995 L32.6666667,0 L17.4391417,6.0995 Z" id="Fill-6" fill="#AFB0B1" mask="url(#mask-4)"></path>
                    </g>
                </g>
                <g id="file" transform="translate(28.000000, 26.833333)" fill="#F7F7F7" fill-rule="nonzero">
                    <path d="M13.4859375,3.57221897 L10.4270833,0.513962117 C10.0989583,0.185901191 9.65416667,0 9.19114583,0 L1.75,0 C0.783854167,0.0036451214 0,0.787346221 0,1.75330339 L0,16.9170084 C0,17.8829656 0.783854167,18.6666667 1.75,18.6666667 L12.25,18.6666667 C13.2161458,18.6666667 14,17.8829656 14,16.9170084 L14,4.81156024 C14,4.34862982 13.8140625,3.90027989 13.4859375,3.57221897 Z M12.1078125,4.66940051 L9.33333333,4.66940051 L9.33333333,1.89546313 L12.1078125,4.66940051 Z M1.75,16.9170084 L1.75,1.75330339 L7.58333333,1.75330339 L7.58333333,5.54422964 C7.58333333,6.02903079 7.9734375,6.41905878 8.45833333,6.41905878 L12.25,6.41905878 L12.25,16.9170084 L1.75,16.9170084 Z" id="Shape"></path>
                </g>
            </g>
        </g>
    </g>
</svg>